/* XPM */
static char * close_pressed_xpm[] = {
"25 25 9 1",
" 	c None",
".	c #9CC250",
"+	c #3C3C3C",
"@	c #B2CC56",
"#	c #B3D050",
"$	c #525547",
"%	c #B1D72F",
"&	c #B5D44A",
"*	c #B4D446",
".........................",
"+++++++++++++++++++++++++",
"+++++++++++++++++++++++++",
"+++++++++++++++++++++++++",
"+++++++++++++++++++++++++",
"+++++++++++++++++++++++++",
"+++++++++++++++++++++++++",
"+++++++++++++++++++++++++",
"++++++++@#$++$#@+++++++++",
"++++++++#%&$$&%#+++++++++",
"++++++++$&%**%&$+++++++++",
"+++++++++$*%%*$++++++++++",
"+++++++++$*%%*$++++++++++",
"++++++++$&%**%&$+++++++++",
"++++++++#%&$$&%#+++++++++",
"++++++++@#$++$#@+++++++++",
"+++++++++++++++++++++++++",
"+++++++++++++++++++++++++",
"+++++++++++++++++++++++++",
"+++++++++++++++++++++++++",
"+++++++++++++++++++++++++",
"+++++++++++++++++++++++++",
"+++++++++++++++++++++++++",
"+++++++++++++++++++++++++",
"+++++++++++++++++++++++++"};
