/* XPM */
static char * max_xpm[] = {
"25 25 11 1",
" 	c None",
".	c #9CC250",
"+	c #3C3C3C",
"@	c #B4B4B4",
"#	c #E6E6E6",
"$	c #B9B9B9",
"%	c #AFAFAF",
"&	c #E2E2E2",
"*	c #3F3F3F",
"=	c #AEAEAE",
"-	c #BABABA",
".........................",
"+++++++++++++++++++++++++",
"+++++++++++++++++++++++++",
"+++++++++++++++++++++++++",
"+++++++++++++++++++++++++",
"+++++++++++++++++++++++++",
"+++++++++++++++++++++++++",
"+++++++++++++++++++++++++",
"+++++++++++@@++++++++++++",
"+++++++++++##++++++++++++",
"+++++++++++##++++++++++++",
"++++++++@######$+++++++++",
"++++++++@######%+++++++++",
"+++++++++++##++++++++++++",
"+++++++++++&#*+++++++++++",
"+++++++++++=-++++++++++++",
"+++++++++++++++++++++++++",
"+++++++++++++++++++++++++",
"+++++++++++++++++++++++++",
"+++++++++++++++++++++++++",
"+++++++++++++++++++++++++",
"+++++++++++++++++++++++++",
"+++++++++++++++++++++++++",
"+++++++++++++++++++++++++",
"+++++++++++++++++++++++++"};
