/* XPM */
static char * stick_pressed_xpm[] = {
"25 25 53 1",
" 	c None",
".	c #9CC250",
"+	c #3C3C3C",
"@	c #4D4D4D",
"#	c #828282",
"$	c #B4B4B4",
"%	c #CACACA",
"&	c #4C4C4C",
"*	c #404040",
"=	c #989898",
"-	c #E2E2E2",
";	c #E6E6E6",
">	c #E0E0E0",
",	c #979797",
"'	c #3F3F3F",
")	c #424242",
"!	c #BCBCBC",
"~	c #B4C579",
"{	c #ABC844",
"]	c #AFD234",
"^	c #414141",
"/	c #A2A2A2",
"(	c #D6DBC7",
"_	c #ABC945",
":	c #B1D72F",
"<	c #A0A0A0",
"[	c #5A5A5A",
"}	c #E4E4E4",
"|	c #595959",
"1	c #A8A8A8",
"2	c #B7CA7E",
"3	c #DCDCDC",
"4	c #ACCA46",
"5	c #DADADA",
"6	c #DBDBDB",
"7	c #ACC945",
"8	c #B6C77B",
"9	c #B4C77B",
"0	c #E3E3E3",
"a	c #A7C541",
"b	c #A1A1A1",
"c	c #D3D8C4",
"d	c #A6C440",
"e	c #DFDFDF",
"f	c #AABB6F",
"g	c #A3C03C",
"h	c #AED230",
"i	c #AABB71",
"j	c #E1E1E1",
"k	c #DEDEDE",
"l	c #4B4B4B",
"m	c #808080",
"n	c #B3B3B3",
".........................",
"+++++++++++++++++++++++++",
"+++++++++++++++++++++++++",
"+++++++++++++++++++++++++",
"++++++++@#$%%$#&+++++++++",
"++++++*=-;;>>;;-,'+++++++",
"+++++)!;>~{]]{~-;!^++++++",
"+++++/;(_::::::_(;<++++++",
"++++[}}_::::::::_}}|+++++",
"++++1;2::::::::::2;1+++++",
"++++3;4::::::::::4;5+++++",
"++++;;]::::::::::];;+++++",
"++++;;]::::::::::];;+++++",
"++++6;7::::::::::7;5+++++",
"++++1;8::::::::::9;1+++++",
"++++[}0a::::::::a}}|+++++",
"+++++b;cd::::::dc;<++++++",
"+++++^!;efghhgi>;!'++++++",
"++++++',j;;kk;;>,'+++++++",
"++++++++lmn%%nml+++++++++",
"+++++++++++++++++++++++++",
"+++++++++++++++++++++++++",
"+++++++++++++++++++++++++",
"+++++++++++++++++++++++++",
"+++++++++++++++++++++++++"};
