/* XPM */
static char * stick_xpm[] = {
"25 25 50 1",
" 	c None",
".	c #9CC250",
"+	c #3C3C3C",
"@	c #4D4D4D",
"#	c #828282",
"$	c #B4B4B4",
"%	c #CACACA",
"&	c #4C4C4C",
"*	c #404040",
"=	c #989898",
"-	c #E2E2E2",
";	c #E6E6E6",
">	c #DADADA",
",	c #979797",
"'	c #3F3F3F",
")	c #424242",
"!	c #BCBCBC",
"~	c #DDDDDD",
"{	c #8D8D8D",
"]	c #474747",
"^	c #8E8E8E",
"/	c #DEDEDE",
"(	c #414141",
"_	c #A2A2A2",
":	c #D3D3D3",
"<	c #5A5A5A",
"[	c #D4D4D4",
"}	c #A0A0A0",
"|	c #E4E4E4",
"1	c #E1E1E1",
"2	c #5D5D5D",
"3	c #5E5E5E",
"4	c #595959",
"5	c #A8A8A8",
"6	c #A5A5A5",
"7	c #DCDCDC",
"8	c #6F6F6F",
"9	c #717171",
"0	c #DBDBDB",
"a	c #727272",
"b	c #606060",
"c	c #A1A1A1",
"d	c #5B5B5B",
"e	c #484848",
"f	c #8F8F8F",
"g	c #DFDFDF",
"h	c #E0E0E0",
"i	c #4B4B4B",
"j	c #808080",
"k	c #B3B3B3",
".........................",
"+++++++++++++++++++++++++",
"+++++++++++++++++++++++++",
"+++++++++++++++++++++++++",
"++++++++@#$%%$#&+++++++++",
"++++++*=-;;>>;;-,'+++++++",
"+++++)!;~{]++]^/;!(++++++",
"+++++_;:<++++++<[;}++++++",
"++++<|12++++++++3-|4+++++",
"++++5;6++++++++++6;5+++++",
"++++7;8++++++++++9;>+++++",
"++++;;<++++++++++<;;+++++",
"++++;;<++++++++++<;;+++++",
"++++0;8++++++++++a;>+++++",
"++++5;6++++++++++6;5+++++",
"++++<|13++++++++b-|4+++++",
"+++++c;[<++++++d[;}++++++",
"+++++(!;/^e++efg;!'++++++",
"++++++',1;;>>;;h,'+++++++",
"++++++++ijk%%kji+++++++++",
"+++++++++++++++++++++++++",
"+++++++++++++++++++++++++",
"+++++++++++++++++++++++++",
"+++++++++++++++++++++++++",
"+++++++++++++++++++++++++"};
