/* XPM */
static char * stick_unfocused_xpm[] = {
"25 25 42 1",
" 	c None",
".	c #9CC250",
"+	c #3C3C3C",
"@	c #454545",
"#	c #636363",
"$	c #7E7E7E",
"%	c #8B8B8B",
"&	c #3E3E3E",
"*	c #6F6F6F",
"=	c #989898",
"-	c #9B9B9B",
";	c #949494",
">	c #3F3F3F",
",	c #838383",
"'	c #969696",
")	c #696969",
"!	c #424242",
"~	c #757575",
"{	c #909090",
"]	c #4C4C4C",
"^	c #4D4D4D",
"/	c #747474",
"(	c #9A9A9A",
"_	c #4E4E4E",
":	c #4F4F4F",
"<	c #787878",
"[	c #767676",
"}	c #777777",
"|	c #959595",
"1	c #585858",
"2	c #5A5A5A",
"3	c #595959",
"4	c #505050",
"5	c #999999",
"6	c #434343",
"7	c #6A6A6A",
"8	c #979797",
"9	c #6E6E6E",
"0	c #3D3D3D",
"a	c #444444",
"b	c #626262",
"c	c #8A8A8A",
".........................",
"+++++++++++++++++++++++++",
"+++++++++++++++++++++++++",
"+++++++++++++++++++++++++",
"++++++++@#$%%$#@+++++++++",
"++++++&*=--;;--=*&+++++++",
"+++++>,-')!++!)'-,&++++++",
"+++++~-{]++++++^{-/++++++",
"++++^(=_++++++++:=(]+++++",
"++++<-~++++++++++[-}+++++",
"++++|-1++++++++++2-;+++++",
"++++--]++++++++++]--+++++",
"++++--]++++++++++^--+++++",
"++++|-1++++++++++3-;+++++",
"++++}-[++++++++++}-}+++++",
"++++](=:++++++++4=5]+++++",
"+++++/-{^++++++^{-/++++++",
"+++++>,-')6++678-,&++++++",
"++++++&*=--;;--890+++++++",
"++++++++ab$cc$ba+++++++++",
"+++++++++++++++++++++++++",
"+++++++++++++++++++++++++",
"+++++++++++++++++++++++++",
"+++++++++++++++++++++++++",
"+++++++++++++++++++++++++"};
